HIERARCHY
ROOT Hips
{
 OFFSET 0.000000 0.000000 0.000000
 CHANNELS 6 Xposition Yposition Zposition Yrotation Xrotation Zrotation
 JOINT Chest
 {
  OFFSET 0.000000 10.101222 -0.056779
  CHANNELS 3 Yrotation Xrotation Zrotation
  JOINT Chest2
  {
   OFFSET 0.000000 8.297218 0.103137
   CHANNELS 3 Yrotation Xrotation Zrotation
   JOINT Chest3
   {
    OFFSET 0.000000 7.493411 0.000000
    CHANNELS 3 Yrotation Xrotation Zrotation
    JOINT Chest4
    {
     OFFSET 0.000000 7.493411 0.000000
     CHANNELS 3 Yrotation Xrotation Zrotation
     JOINT Neck
     {
      OFFSET 0.000000 10.747351 0.000000
      CHANNELS 3 Yrotation Xrotation Zrotation
      JOINT Head
      {
       OFFSET 0.000000 7.717153 0.188667
       CHANNELS 3 Yrotation Xrotation Zrotation
       End Site
       {
        OFFSET 0.000000 14.853047 0.068983
       }
      }
     }
     JOINT RightCollar
     {
      OFFSET -2.766550 6.061559 0.000000
      CHANNELS 3 Yrotation Xrotation Zrotation
      JOINT RightShoulder
      {
       OFFSET -14.830725 0.000000 0.000000
       CHANNELS 3 Yrotation Xrotation Zrotation
       JOINT RightElbow
       {
        OFFSET -28.959634 0.000000 0.000000
        CHANNELS 3 Yrotation Xrotation Zrotation
        JOINT RightWrist
        {
         OFFSET -23.742631 0.000000 0.003006
         CHANNELS 3 Yrotation Xrotation Zrotation
         End Site
         {
          OFFSET -17.766445 0.000000 0.000000
         }
        }
       }
      }
     }
     JOINT LeftCollar
     {
      OFFSET 2.766550 6.061559 0.000000
      CHANNELS 3 Yrotation Xrotation Zrotation
      JOINT LeftShoulder
      {
       OFFSET 14.830725 0.000000 0.000000
       CHANNELS 3 Yrotation Xrotation Zrotation
       JOINT LeftElbow
       {
        OFFSET 28.959634 0.000000 0.000000
        CHANNELS 3 Yrotation Xrotation Zrotation
        JOINT LeftWrist
        {
         OFFSET 23.742631 0.000000 0.003006
         CHANNELS 3 Yrotation Xrotation Zrotation
         End Site
         {
          OFFSET 17.766445 0.000000 0.000000
         }
        }
       }
      }
     }
    }
   }
  }
 }
 JOINT RightHip
 {
  OFFSET -8.655184 0.278217 0.028389
  CHANNELS 3 Yrotation Xrotation Zrotation
  JOINT RightKnee
  {
   OFFSET 0.000000 -47.671744 -0.001158
   CHANNELS 3 Yrotation Xrotation Zrotation
   JOINT RightAnkle
   {
    OFFSET 0.000000 -42.492694 -0.036854
    CHANNELS 3 Yrotation Xrotation Zrotation
    JOINT RightToe
    {
     OFFSET 0.000000 -5.741774 14.901460
     CHANNELS 3 Yrotation Xrotation Zrotation
     End Site
     {
      OFFSET 0.000000 -1.778666 8.212983
     }
    }
   }
  }
 }
 JOINT LeftHip
 {
  OFFSET 8.655184 0.278217 0.028389
  CHANNELS 3 Yrotation Xrotation Zrotation
  JOINT LeftKnee
  {
   OFFSET 0.000000 -47.671744 -0.001158
   CHANNELS 3 Yrotation Xrotation Zrotation
   JOINT LeftAnkle
   {
    OFFSET 0.000000 -42.492694 -0.036854
    CHANNELS 3 Yrotation Xrotation Zrotation
    JOINT LeftToe
    {
     OFFSET 0.000000 -5.741774 14.901460
     CHANNELS 3 Yrotation Xrotation Zrotation
     End Site
     {
      OFFSET 0.000000 -1.778666 8.212983
     }
    }
   }
  }
 }
}
MOTION
Frames: 16
Frame Time: 0.004167
512.059503 96.341157 790.720607 -160.851097 -11.063040 -6.036183 -1.139670 11.420788 -0.654964 -0.470217 -2.563502 -0.228874 -0.470279 2.726401 -0.272276 -0.351427 2.045012 -0.202069 7.477010 15.487727 1.226165 13.504379 -7.206773 -0.469740 2.331284 -5.660496 -5.691044 21.900028 -14.508760 60.178434 115.988791 9.276551 12.128061 -16.099042 11.587746 9.811761 -0.627169 -1.104641 -6.104458 -8.579731 4.276203 -75.173004 -14.831495 -40.936099 -88.169321 -21.557898 -34.173489 4.527882 4.287973 16.289106 2.663498 2.190952 1.451899 1.197708 -9.265243 -3.673681 -2.471735 -0.036737 -1.839300 6.271969 5.869696 19.203753 0.940490 -5.359027 -7.998987 -4.157086 22.039370 -6.786622 6.495297 0.000000 0.000000 0.000000
512.056250 96.341484 790.720069 -160.840604 -11.055124 -6.042207 -1.141900 11.418044 -0.645364 -0.471732 -2.564743 -0.224501 -0.471793 2.725159 -0.268042 -0.352582 2.044078 -0.198889 7.479265 15.481846 1.222536 13.510309 -7.217113 -0.477901 2.335737 -5.617383 -5.679836 21.840024 -14.516972 60.307123 115.988372 9.261630 12.090709 -16.058744 11.587596 9.732297 -0.613240 -1.107005 -6.110281 -8.521415 4.254223 -75.204236 -14.831025 -40.906499 -88.159425 -21.497948 -34.146325 4.516171 4.302132 16.290144 2.667401 2.171395 1.435104 1.202948 -9.265646 -3.659890 -2.458421 -0.037009 -1.845807 6.258163 5.860272 19.195983 0.942529 -5.359786 -7.997250 -4.156735 22.040074 -6.785014 6.494348 -0.000000 0.000000 0.000000
512.054213 96.342678 790.718800 -160.829678 -11.047417 -6.048497 -1.145028 11.413894 -0.635081 -0.473685 -2.566609 -0.219780 -0.473745 2.723292 -0.263502 -0.354067 2.042675 -0.195477 7.481739 15.478506 1.216474 13.517380 -7.222483 -0.490413 2.333909 -5.578438 -5.667031 21.718671 -14.573776 60.453523 115.942934 9.024611 12.118262 -16.056406 11.576607 9.743351 -0.602581 -1.110171 -6.117982 -8.441606 4.235328 -75.229420 -14.827229 -40.872381 -88.150410 -21.439257 -34.104953 4.513791 4.321030 16.291778 2.673282 2.147972 1.417275 1.208751 -9.266031 -3.645109 -2.444608 -0.036895 -1.849266 6.242770 5.853385 19.186880 0.946399 -5.362671 -7.992123 -4.156367 22.040932 -6.784915 6.492769 -0.000000 0.000000 0.000000
512.053203 96.344586 790.716894 -160.818559 -11.040052 -6.054917 -1.148873 11.408664 -0.624297 -0.475986 -2.568954 -0.214801 -0.476044 2.720945 -0.258735 -0.355813 2.040912 -0.191894 7.484438 15.477343 1.208396 13.525472 -7.223596 -0.506538 2.326741 -5.543189 -5.652820 21.545216 -14.671185 60.614884 115.858512 8.603613 12.201545 -16.086210 11.556965 9.830044 -0.594800 -1.114129 -6.127050 -8.344564 4.219491 -75.249123 -14.820871 -40.835231 -88.142179 -21.382175 -34.051723 4.519432 4.343701 16.293994 2.680766 2.121550 1.398770 1.214901 -9.266367 -3.629662 -2.430507 -0.036462 -1.850152 6.226232 5.848794 19.176849 0.951762 -5.367320 -7.984164 -4.155981 22.041897 -6.786126 6.490672 0.000000 -0.000000 0.000000
512.053034 96.347056 790.714443 -160.807487 -11.033163 -6.061328 -1.153252 11.402682 -0.613197 -0.478541 -2.571635 -0.209655 -0.478598 2.718262 -0.253825 -0.357752 2.038898 -0.188203 7.487368 15.477995 1.198718 13.534467 -7.221166 -0.525541 2.315173 -5.511165 -5.637388 21.328902 -14.801222 60.788496 115.740689 8.036868 12.331501 -16.142702 11.530849 9.977273 -0.589505 -1.118871 -6.136975 -8.234547 4.206682 -75.263908 -14.812709 -40.796535 -88.134643 -21.327045 -33.988989 4.531782 4.369177 16.296775 2.689476 2.092997 1.379949 1.221180 -9.266624 -3.613872 -2.416331 -0.035780 -1.848941 6.208992 5.846260 19.166296 0.958281 -5.373374 -7.973931 -4.155574 22.042918 -6.788448 6.488168 0.000000 0.000000 0.000000
512.053518 96.349933 790.711539 -160.796705 -11.026885 -6.067595 -1.157984 11.396274 -0.601963 -0.481262 -2.574504 -0.204432 -0.481317 2.715391 -0.248852 -0.359814 2.036741 -0.184464 7.490535 15.480098 1.187856 13.544243 -7.215908 -0.546686 2.300146 -5.481895 -5.620923 21.079001 -14.955944 60.971625 115.595187 7.362591 12.499069 -16.220385 11.500411 10.169930 -0.586306 -1.124390 -6.147246 -8.115813 4.196864 -75.274338 -14.803495 -40.757778 -88.127718 -21.274209 -33.919105 4.549528 4.396494 16.300109 2.699036 2.063179 1.361170 1.227370 -9.266773 -3.598062 -2.402293 -0.034913 -1.846108 6.191492 5.845542 19.155627 0.965619 -5.380474 -7.961983 -4.155145 22.043944 -6.791684 6.485366 0.000000 0.000000 0.000000
512.054470 96.353065 790.708275 -160.786450 -11.021350 -6.073580 -1.162888 11.389767 -0.590778 -0.484056 -2.577417 -0.199221 -0.484108 2.712476 -0.243899 -0.361930 2.034552 -0.180740 7.493943 15.483289 1.176225 13.554680 -7.208535 -0.569237 2.282601 -5.454908 -5.603606 20.804849 -15.127469 61.161448 115.428341 6.618872 12.695068 -16.313394 11.467762 10.393093 -0.584812 -1.130675 -6.157352 -7.992619 4.190001 -75.280975 -14.793973 -40.720446 -88.121328 -21.224012 -33.844429 4.571368 4.424685 16.303980 2.709071 2.032965 1.342791 1.233251 -9.266784 -3.582554 -2.388607 -0.033930 -1.842131 6.174174 5.846403 19.145245 0.973438 -5.388258 -7.948878 -4.154692 22.044927 -6.795634 6.482377 -0.000000 0.000000 0.000000
512.055703 96.356299 790.704744 -160.776965 -11.016692 -6.079145 -1.167780 11.383490 -0.579825 -0.486831 -2.580228 -0.194113 -0.486882 2.709663 -0.239048 -0.364033 2.032440 -0.177092 7.497599 15.487204 1.164241 13.565661 -7.199764 -0.592461 2.263479 -5.429732 -5.585619 20.515868 -15.307985 61.355017 115.247450 5.843586 12.910089 -16.415278 11.434958 10.632155 -0.584631 -1.137718 -6.166783 -7.869224 4.186057 -75.284385 -14.784877 -40.686028 -88.115406 -21.176802 -33.767327 4.596008 4.452783 16.308378 2.719204 2.003221 1.325171 1.238607 -9.266627 -3.567671 -2.375485 -0.032895 -1.837484 6.157479 5.848601 19.135558 0.981402 -5.396369 -7.935174 -4.154214 22.045817 -6.800099 6.479311 0.000000 0.000000 0.000000
512.057028 96.359483 790.701038 -160.768489 -11.013047 -6.084155 -1.172480 11.377767 -0.569286 -0.489497 -2.582791 -0.189199 -0.489547 2.707097 -0.234379 -0.366053 2.030513 -0.173581 7.501508 15.491480 1.152319 13.577064 -7.190309 -0.615622 2.243721 -5.405896 -5.567142 20.221578 -15.489768 61.549232 115.061004 5.074320 13.134398 -16.518880 11.403992 10.872916 -0.585375 -1.145508 -6.175029 -7.749883 4.184994 -75.285139 -14.776932 -40.656011 -88.109897 -21.132931 -33.690169 4.622168 4.479821 16.313291 2.729060 1.974815 1.308669 1.243217 -9.266273 -3.553736 -2.363141 -0.031872 -1.832646 6.141851 5.851900 19.126971 0.989176 -5.404444 -7.921430 -4.153708 22.046563 -6.804882 6.476279 -0.000000 -0.000000 0.000000
512.058260 96.362463 790.697250 -160.761263 -11.010547 -6.088472 -1.176804 11.372928 -0.559346 -0.491963 -2.584961 -0.184567 -0.492011 2.704925 -0.229975 -0.367921 2.028881 -0.170270 7.505675 15.495754 1.140874 13.588772 -7.180886 -0.637988 2.224269 -5.382929 -5.548353 19.931611 -15.665185 61.740821 114.878784 4.348328 13.357865 -16.616298 11.376789 11.101613 -0.586653 -1.154037 -6.181578 -7.638855 4.186777 -75.283812 -14.770854 -40.631885 -88.104749 -21.092759 -33.615334 4.648582 4.504834 16.318708 2.738263 1.948614 1.293642 1.246864 -9.265691 -3.541070 -2.351788 -0.030926 -1.828094 6.127729 5.856060 19.119891 0.996422 -5.412126 -7.908203 -4.153173 22.047116 -6.809783 6.473391 -0.000000 0.000000 0.000000
512.059212 96.365087 790.693472 -160.755526 -11.009327 -6.091959 -1.180571 11.369298 -0.550185 -0.494136 -2.586593 -0.180309 -0.494183 2.703292 -0.225917 -0.369568 2.027653 -0.167219 7.510106 15.499661 1.130321 13.600666 -7.172212 -0.658825 2.206065 -5.360359 -5.529430 19.655709 -15.826696 61.926349 114.711841 3.702513 13.569945 -16.698951 11.355208 11.304908 -0.588079 -1.163292 -6.185921 -7.540396 4.191371 -75.280985 -14.767354 -40.615142 -88.099920 -21.056653 -33.545206 4.673999 4.526853 16.324620 2.746436 1.925488 1.280450 1.249326 -9.264853 -3.529997 -2.341640 -0.030119 -1.824304 6.115557 5.860844 19.114723 1.002807 -5.419053 -7.896051 -4.152607 22.047425 -6.814604 6.470759 0.000000 -0.000000 -0.000000
512.059696 96.367201 790.689798 -160.751519 -11.009521 -6.094479 -1.183596 11.367204 -0.541988 -0.495926 -2.587541 -0.176514 -0.495972 2.702343 -0.222287 -0.370926 2.026939 -0.164490 7.514807 15.502838 1.121075 13.612629 -7.165003 -0.677402 2.190051 -5.337715 -5.510548 19.403711 -15.966848 62.102231 114.572332 3.173451 13.759708 -16.757722 11.341046 11.469792 -0.589263 -1.173261 -6.187547 -7.458762 4.198744 -75.277245 -14.767136 -40.607272 -88.095367 -21.024982 -33.482177 4.697179 4.544912 16.331018 2.753204 1.906303 1.269450 1.250386 -9.263728 -3.520838 -2.332910 -0.029512 -1.821754 6.105775 5.866014 19.111874 1.007996 -5.424865 -7.885534 -4.152007 22.047441 -6.819148 6.468492 0.000000 0.000000 0.000000
512.059526 96.368652 790.686319 -160.749483 -11.011263 -6.095895 -1.185699 11.366974 -0.534937 -0.497240 -2.587658 -0.173272 -0.497286 2.702224 -0.219167 -0.371926 2.026848 -0.162145 7.519784 15.504921 1.113550 13.624543 -7.159977 -0.692987 2.177171 -5.314526 -5.491884 19.185538 -16.078263 62.264761 114.473218 2.797464 13.915967 -16.783182 11.336052 11.583444 -0.589818 -1.183934 -6.185945 -7.398212 4.208862 -75.273186 -14.770904 -40.609769 -88.091047 -20.998125 -33.428642 4.716894 4.558042 16.337893 2.758189 1.891927 1.261002 1.249823 -9.262286 -3.513915 -2.325813 -0.029169 -1.820922 6.098825 5.871332 19.111752 1.011654 -5.429202 -7.877209 -4.151372 22.047114 -6.823214 6.466701 0.000000 0.000000 0.000000
512.058942 96.369540 790.682825 -160.749384 -11.015011 -6.096047 -1.187167 11.368748 -0.529296 -0.498194 -2.586883 -0.170684 -0.498241 2.702999 -0.216667 -0.372652 2.027427 -0.160265 7.525165 15.506140 1.107472 13.636737 -7.156667 -0.706115 2.166095 -5.291678 -5.472575 18.982857 -16.171479 62.418873 114.410076 2.541703 14.056981 -16.777603 11.339004 11.661319 -0.590670 -1.195838 -6.180232 -7.356361 4.223805 -75.267449 -14.779960 -40.623984 -88.086522 -20.977109 -33.381606 4.734108 4.567690 16.345685 2.762099 1.880913 1.255192 1.247195 -9.260534 -3.509408 -2.320604 -0.029034 -1.821250 6.094991 5.878458 19.114774 1.014299 -5.433046 -7.870831 -4.150630 22.045956 -6.826988 6.465353 0.000000 -0.000000 0.000000
512.058298 96.370094 790.679078 -160.750941 -11.020909 -6.094981 -1.188386 11.372258 -0.525033 -0.498959 -2.585332 -0.168717 -0.499007 2.704548 -0.214771 -0.373235 2.028588 -0.158839 7.531028 15.507039 1.102212 13.649548 -7.154000 -0.717927 2.154953 -5.270248 -5.451883 18.773313 -16.261340 62.571564 114.367875 2.345106 14.205924 -16.751690 11.347089 11.727903 -0.592835 -1.209320 -6.170402 -7.327053 4.244929 -75.258528 -14.794343 -40.649155 -88.081568 -20.962183 -33.336561 4.750794 4.575829 16.354684 2.765794 1.871394 1.251684 1.242457 -9.258508 -3.507078 -2.317213 -0.029003 -1.821864 6.093973 5.888708 19.120762 1.016626 -5.437416 -7.865635 -4.149736 22.043713 -6.830804 6.464304 0.000000 -0.000000 -0.000000
512.057584 96.370358 790.675135 -160.754017 -11.028624 -6.092872 -1.189314 11.377220 -0.521888 -0.499532 -2.583134 -0.167257 -0.499582 2.706746 -0.213364 -0.373671 2.030236 -0.157779 7.537296 15.507722 1.097656 13.662872 -7.151771 -0.728599 2.143872 -5.250051 -5.430160 18.560848 -16.346998 62.722144 114.344007 2.201558 14.358939 -16.708679 11.359646 11.783857 -0.596056 -1.224100 -6.157260 -7.308882 4.271109 -75.246805 -14.812869 -40.683601 -88.076461 -20.952556 -33.293636 4.767238 4.582286 16.364660 2.769130 1.863609 1.250201 1.235991 -9.256226 -3.506624 -2.315366 -0.029064 -1.822763 6.095335 5.901330 19.129231 1.018569 -5.442003 -7.861401 -4.148732 22.040682 -6.834686 6.463502 0.000000 0.000000 0.000000
